PathFileType	4	(X/Y/Z)	C:\Users\WrightLab\Desktop\Jo\P1_boxCal31.trc
DataRate	CameraRate	NumFrames	NumMarkers	Units	OrigDataRate	OrigDataStartFrame	OrigNumFrames
100.00	100.00	       10	19	mm	100.00	278	       740
Frame#	Time	Headset_Front			Headset_Back			Headset_Left			Headset_Right			Left_Shoulder			Right_Shoulder			Sternum			C7			Left Elbow			Right Elbow			Left Wrist			Right Wrist			Left ASIS			Right ASIS			S2			Left Knee			Right Knee			Left Ankle			Right Ankle			
		X1	Y1	Z1	X2	Y2	Z2	X3	Y3	Z3	X4	Y4	Z4	X5	Y5	Z5	X6	Y6	Z6	X7	Y7	Z7	X8	Y8	Z8	X9	Y9	Z9	X10	Y10	Z10	X11	Y11	Z11	X12	Y12	Z12	X13	Y13	Z13	X14	Y14	Z14	X15	Y15	Z15	X16	Y16	Z16	X17	Y17	Z17	X18	Y18	Z18	X19	Y19	Z19	

278	2.770	-617.37512	1362.26880	-579.78412	-647.51410	1480.67859	-864.21564	-529.82001	1410.95679	-765.28845	-738.00677	1407.01990	-673.10333	-463.81287	1234.76648	-804.16583	-846.89709	1235.41760	-816.64703				-639.68439	1240.97742	-921.16162	-397.66431	912.26685	-842.08246	-913.92310	958.86188	-863.03320	-346.97720	720.15625	-754.57501	-965.17957	729.55566	-776.33014	-608.82043	862.64166	-628.14734	-794.50311	860.51099	-699.27917	-589.29059	859.40527	-962.33112	-551.44037	436.37527	-643.12738	-843.34412	412.41122	-884.80707	-602.65442	61.60162	-646.74390				
279	2.780	-618.83710	1362.25586	-570.84564	-647.86871	1482.31299	-854.47375	-530.33777	1410.34485	-750.34259	-738.27686	1409.06421	-662.94855	-465.07220	1236.45825	-791.97217	-848.08215	1237.57959	-806.21484				-640.90515	1242.34534	-911.68372	-397.96967	914.28040	-833.31207	-914.90643	961.18481	-853.75696	-347.36423	722.14569	-745.29364	-965.53241	730.90253	-768.37653	-606.28662	865.29126	-616.45532	-794.82751	862.89117	-687.55701	-590.85278	859.81873	-952.51733	-550.26465	436.91901	-634.10980	-852.15594	414.73688	-865.75629	-601.94995	62.47543	-645.74677				
280	2.790	-618.59918	1361.88318	-562.48291	-648.37561	1483.76453	-844.35065	-530.39722	1412.04968	-743.66809	-737.43164	1410.84546	-652.62921	-465.45227	1237.96643	-782.94666	-848.46936	1239.29053	-796.15930				-642.15265	1243.86377	-901.43665	-398.01208	915.80823	-822.92340	-915.60004	962.92078	-844.13110	-347.91037	723.91870	-734.62866	-966.20221	732.04712	-760.88336	-606.69617	866.89551	-605.93164	-793.64404	864.69733	-676.12805	-592.17944	860.68512	-943.30334	-548.63763	436.92761	-626.45038	-860.64166	416.54916	-845.87341	-600.72876	62.41912	-643.96234				
281	2.800	-617.59277	1362.77332	-553.52057	-649.03796	1485.32922	-834.73578	-530.54492	1413.75037	-737.12524	-737.38507	1412.48022	-642.14319	-466.82410	1239.79150	-773.20514	-849.72766	1241.05554	-784.90088	-686.63141	1144.70264	-653.40015	-643.45007	1245.19727	-891.35449	-398.20468	917.74048	-812.44012	-916.80920	964.96619	-834.82831	-347.95456	725.96661	-724.89862	-967.57532	733.46411	-752.44843	-606.55280	868.61066	-596.00623	-793.60181	865.97058	-665.71796	-594.10248	861.33600	-933.05481	-546.92493	436.71921	-620.15955	-868.50769	419.09085	-825.19574	-600.23718	62.20700	-643.20953				
282	2.810	-617.86145	1364.42188	-544.99731	-649.77710	1486.74084	-824.96948	-531.33093	1415.02869	-728.80774	-737.18024	1413.96216	-632.04974	-467.65002	1241.47766	-764.99133	-851.10645	1242.28113	-773.97742				-644.86725	1246.43359	-881.63824	-397.50925	919.16425	-802.81299	-918.68390	966.80145	-825.09436	-348.06677	728.00836	-714.14453	-969.16272	734.73596	-744.32495	-604.11389	870.41455	-585.84821	-793.74738	867.38788	-655.33551	-595.75397	862.13464	-923.51923	-546.14099	435.01089	-614.62091	-875.54199	422.52054	-805.12518	-600.48724	61.67170	-643.04572				
283	2.820	-618.83765	1364.74658	-534.89508	-650.67792	1488.25671	-815.34961	-531.23602	1415.48743	-719.34558	-733.88416	1414.71045	-620.31177	-468.84299	1242.77136	-755.01874	-851.57574	1243.47900	-764.02936				-646.15485	1248.24219	-873.02203	-397.31073	921.05371	-794.09247	-920.64374	968.06873	-814.79688	-348.08926	729.68359	-702.98608	-970.75220	736.12720	-736.02240	-603.06207	871.45746	-577.33130	-792.87634	867.86078	-644.01843	-597.26819	863.38373	-914.38098	-545.99738	433.26334	-611.13300	-882.39282	426.14627	-784.05762	-601.03644	59.20253	-642.75690				
284	2.830	-618.11121	1366.41016	-529.98090	-651.65442	1489.32568	-805.45892	-532.23700	1415.59729	-707.10760	-734.02435	1415.92468	-610.81232	-469.77740	1244.17554	-745.88336	-853.08838	1244.93921	-754.07452				-647.59698	1249.21021	-862.57355	-396.55444	923.20917	-784.25854	-923.28412	969.80963	-804.91003	-347.93817	731.47479	-691.69952	-973.07611	737.59088	-727.35321	-603.12714	871.43579	-568.43927	-793.24640	868.73669	-633.57214	-598.89825	864.44031	-903.74573	-545.14478	431.30930	-609.69171	-888.62097	429.63156	-761.47656	-603.48090	57.55283	-643.88165				
285	2.840	-617.81268	1366.71863	-525.97156	-652.70795	1490.59753	-796.29541	-532.67578	1417.28003	-701.03979	-734.47913	1417.02063	-600.69543	-470.97556	1245.54749	-737.48944	-853.93347	1245.40137	-743.49628				-648.90729	1250.69751	-853.99939	-396.35834	923.78217	-774.36115	-925.36151	970.70892	-794.46405	-348.38834	732.97070	-680.44214	-975.04987	738.56750	-718.03192	-602.85419	873.06482	-558.95532	-793.83636	869.52563	-623.21057	-600.56311	865.65601	-895.15668	-542.71051	429.80249	-607.23706	-892.37878	433.29761	-738.23254	-605.00323	56.35439	-644.05884				
286	2.850	-618.09033	1367.71948	-513.94446	-653.72479	1492.03320	-786.31860	-533.17480	1419.00256	-694.93463	-732.84161	1418.09985	-590.36334	-471.81262	1246.76208	-728.89294	-855.08936	1246.69385	-733.58978	-690.78351	1151.21155	-604.65662	-650.47144	1251.60388	-843.88641	-396.17508	924.79413	-764.10010	-927.56128	972.64349	-784.91321	-348.42902	734.37195	-668.81073	-977.30896	740.02704	-709.13800	-602.73901	873.59259	-549.64044	-793.93781	870.02130	-612.66266	-602.37701	866.94489	-885.87256	-540.78003	428.93460	-605.08746	-896.52850	437.43436	-717.01660	-606.25134	56.10409	-645.59399				
287	2.860	-616.79114	1369.33765	-498.89893	-654.98090	1493.09668	-776.72723	-534.23444	1419.20874	-682.55005	-735.32751	1420.37280	-581.67499	-472.77371	1247.61987	-718.75629	-855.97681	1247.43311	-723.58936	-689.43530	1151.70691	-592.57269	-652.06055	1252.56604	-835.20093	-395.90018	926.76251	-755.05267	-929.66235	973.72583	-775.19574	-348.57361	736.80920	-659.06720	-980.11102	740.98206	-698.97498	-600.63171	875.26184	-541.32483	-794.22406	870.76233	-601.24652	-604.04462	868.77399	-877.29004	-537.29395	428.41583	-602.28717	-900.35425	440.78375	-694.97809	-604.94556	56.86769	-647.89563				
